<svg xmlns="http://www.w3.org/2000/svg" viewBox="0 0 512 512" xml:space="preserve" width="512" height="512">
  <path style="fill:#1b222c" d="M271.244 151.108c0 9.088-7.36 16.455-16.455 16.455-9.095 0-16.455-7.367-16.455-16.455 0-9.088 7.36-16.455 16.455-16.455 9.095 0 16.455 7.367 16.455 16.455z"/>
	<path style="fill:#45404e" d="M72.668 324.537H252.69V144.502c-99.416 0-180.022 80.606-180.022 180.035z"/>
	<path style="fill:#1b222c" d="M252.69 144.502v180.036h180.036c0-99.43-80.593-180.036-180.036-180.036z"/>
	<path d="M114.404 306.992 75.675 489.013H252.69V306.992z"/>
	<path style="fill:#1e1e1e" d="M412.598 306.992H252.69v182.021h198.644z"/>
	<path style="fill:#45404e" d="m31.51 310.672 69.386 24.522 18.708-52.938-69.385-24.514z"/>
	<path style="fill:#45404e" d="M4.797 496.823h71.161l11.261-49.775 2.92-12.91 10.663-47.118 2.926-12.903 14.282-63.128-35.581-23.237-32.069 86.365-4.797 12.903-17.497 47.118-4.796 12.91z"/>
	<path style="fill:#763030" d="M90.139 434.138H28.066l-4.796 12.91h63.949zm-14.558 62.927H4.797L0 509.975h72.661zm28.147-122.948H50.36l-4.797 12.903h55.239z"/>
	<path style="fill:#63736e" d="m480.49 310.672-69.386 24.522-18.715-52.938 69.398-24.514z"/>
	<path style="fill:#63736e" d="M507.21 496.823h-71.161l-11.261-49.775-2.92-12.91-10.67-47.118-2.919-12.903-14.289-63.128 35.588-23.237 32.062 86.365 4.803 12.903 17.504 47.118 4.777 12.91z"/>
	<path style="fill:#763030" d="M424.788 447.048h63.936l-4.777-12.91h-62.079zm14.557 62.927H512l-4.79-12.91h-70.784zM411.198 387.02h55.245l-4.803-12.903h-53.361z"/>
	<path style="fill:#bb9a62" d="M106.432 307.121c0 39.435 65.867 71.396 147.119 71.396v-71.396H106.432z"/>
	<path style="fill:#838f68" d="M253.551 307.121v71.396c81.253 0 147.126-31.961 147.126-71.396H253.551z"/>
	<path style="fill:#e8ad5f" d="M20.141 485.158H33.69v7.75H20.141zm27.75 0H61.44v7.75H47.891zm398.841 0h13.562v7.75h-13.562zm27.757 0h13.562v7.75h-13.562z"/>
	<path style="fill:#ffebba" d="M205.115 223.063c-62.651 0-117.835-31.921-150.194-80.384 15.117 85.752 89.978 150.893 180.063 150.893 5.974 0 11.88-.303 17.706-.861v-76.005a180.405 180.405 0 0 1-47.575 6.357z"/>
	<path style="fill:#ffe593" d="M417.818 110.731c0-41.629-13.898-79.994-37.323-110.731 3.31 13.663 5.058 27.931 5.058 42.61 0 83.176-56.293 153.214-132.864 174.096v76.005c92.677-8.907 165.129-86.984 165.129-181.98z"/>
	<path style="fill:#ffebba" d="M205.115 223.063c-62.651 0-117.835-31.921-150.194-80.384 15.117 85.752 89.978 150.893 180.063 150.893 5.974 0 11.88-.303 17.706-.861v-76.005a180.405 180.405 0 0 1-47.575 6.357z"/>
	<path style="fill:#ffe593" d="M417.818 110.731c0-41.629-13.898-79.994-37.323-110.731 3.31 13.663 5.058 27.931 5.058 42.61 0 83.176-56.293 153.214-132.864 174.096v76.005c92.677-8.907 165.129-86.984 165.129-181.98z"/>
	<path style="fill:#bb9a62" d="M151.445 199.087c9.996-9.384 20.639-16.421 30.986-21.722 15.514-7.925 30.367-11.914 41.306-13.899 5.476-.995 9.97-1.48 13.064-1.728a82.913 82.913 0 0 1 3.552-.209c.404-.014.7-.02.902-.027.094-.007.161-.007.215-.007h.041v-.552.552-.552.552l-.014-2.852v2.852h.014l-.014-2.852v2.852a4.202 4.202 0 0 0 4.212-4.198c0-2.314-1.884-4.191-4.212-4.191-.242 0-13.508.014-32.048 4.985-9.284 2.482-19.886 6.209-30.838 11.806-10.952 5.611-22.267 13.091-32.91 23.068-1.688 1.581-1.77 4.238-.189 5.933a4.21 4.21 0 0 0 5.933.189z"/>
</svg>